<svg width="33" height="32" viewBox="0 0 33 32" fill="none" xmlns="http://www.w3.org/2000/svg">
<path d="M0.509814 7.78512C0.520789 7.84671 0.529672 7.90829 0.53333 7.97039C0.57984 8.76741 1.18238 15.1266 8.75771 22.8695C8.75771 22.8695 15.3015 29.5382 22.1886 30.9403C22.2183 30.9464 22.2476 30.9531 22.2774 30.9613C22.6944 31.0747 26.2396 31.9708 28.0671 30.1381L30.6706 27.5813C30.6941 27.5582 30.7186 27.5356 30.7437 27.514C31.0034 27.2908 32.8116 25.6203 31.0029 23.8441C29.1723 22.0463 26.8646 19.8543 26.6033 19.606C26.5908 19.5942 26.5788 19.5823 26.5667 19.57C26.4251 19.4253 25.08 18.1238 23.5044 19.3129C23.4589 19.3473 23.4161 19.3858 23.3753 19.4258L20.8262 21.9359C20.255 22.4774 19.3478 22.4702 18.785 21.92L10.0762 13.4002C9.49141 12.828 9.50656 11.8934 10.1096 11.3396L12.1477 9.46949C12.1477 9.46949 14.3807 7.43922 11.9826 5.24626L8.42273 1.75025C8.40078 1.7287 8.37988 1.70663 8.35898 1.68353C8.12904 1.42898 6.42281 -0.313892 4.42081 1.62605C4.35967 1.68507 4.2933 1.73845 4.22275 1.78566C3.5434 2.24345 -0.026876 4.8013 0.509814 7.78512Z" fill="white"/>
<path d="M24.5047 14.0133C25.056 14.013 25.51 13.5636 25.4319 13.0178C25.3355 12.3438 25.1417 11.6856 24.8553 11.0641C24.429 10.1395 23.8076 9.3182 23.0338 8.65658C22.26 7.99496 21.3521 7.50873 20.3725 7.23133C19.7141 7.04487 19.0338 6.95573 18.353 6.96519C17.8017 6.97286 17.4283 7.49115 17.5137 8.03587C17.5991 8.58058 18.1125 8.94249 18.6634 8.96564C19.0566 8.98217 19.4477 9.0446 19.8285 9.15245C20.5307 9.35131 21.1816 9.69987 21.7363 10.1742C22.291 10.6485 22.7364 11.2372 23.042 11.9C23.2077 12.2595 23.3301 12.6361 23.4075 13.022C23.516 13.5626 23.9533 14.0135 24.5047 14.0133Z" fill="#12B76A"/>
<path d="M28.6266 14.1264C29.2907 14.1784 29.8785 13.681 29.8537 13.0153C29.8085 11.8045 29.5531 10.6076 29.0958 9.47896C28.4872 7.97664 27.5375 6.63644 26.3218 5.5642C25.1062 4.49197 23.6579 3.71709 22.0913 3.30076C20.9144 2.98799 19.695 2.88403 18.4881 2.99042C17.8245 3.04891 17.4043 3.69425 17.5388 4.34669C17.6733 4.99914 18.3123 5.40935 18.9775 5.37385C19.8149 5.32917 20.6566 5.41558 21.4717 5.63222C22.6768 5.95248 23.7909 6.54857 24.7261 7.37339C25.6612 8.19821 26.3918 9.22917 26.86 10.3848C27.1767 11.1666 27.3676 11.9909 27.4278 12.8273C27.4756 13.4917 27.9624 14.0745 28.6266 14.1264Z" fill="#12B76A"/>
</svg>
