<svg width="980" height="155" viewBox="0 0 980 155" fill="none" xmlns="http://www.w3.org/2000/svg">
<path d="M980.004 3.17191L908.849 0.0104979C895.109 -0.606363 892.78 26.1654 909.065 26.6126L953.356 27.8155L949.963 72.3682C948.93 85.9392 975.393 87.3579 976.149 73.5711L980.004 3.17191Z" fill="#00C7A2"/>
<path d="M255.403 43.6504C259.058 43.6504 262.018 44.7916 264.285 47.0431C266.537 49.3101 267.678 52.1322 267.678 55.4941V140.683C267.678 144.229 266.352 146.913 263.73 148.763C261.139 150.583 258.441 151.478 255.649 151.478C252.519 151.478 249.727 150.537 247.26 148.64C244.793 146.712 243.559 143.983 243.559 140.436V139.634C237.76 145.278 231.746 149.01 225.547 150.861C219.332 152.665 213.533 153.575 208.151 153.575C193.47 153.575 182.027 148.948 173.854 139.696C165.665 130.443 161.578 117.92 161.578 102.129V55.4941C161.578 52.2556 162.627 49.4797 164.724 47.1665C166.852 44.8224 169.844 43.6504 173.669 43.6504C177.323 43.6504 180.238 44.8224 182.428 47.1665C184.602 49.4797 185.697 52.2556 185.697 55.4941V102.561C185.697 111.736 187.764 119.015 191.928 124.397C196.122 129.749 202.738 132.417 211.791 132.417C214.458 132.417 217.589 131.676 221.167 130.196C224.775 128.715 228.276 126.495 231.653 123.534C235.062 120.573 237.899 116.795 240.166 112.184C242.418 107.588 243.559 102.175 243.559 95.9602V55.4941C243.559 52.1322 244.546 49.3101 246.52 47.0431C248.494 44.7916 251.455 43.6504 255.403 43.6504Z" fill="#2C2C2C"/>
<path d="M347.544 131.369C350.783 129.518 353.713 128.886 356.304 129.457C358.926 130.043 361.054 131.276 362.658 133.158C364.292 135.055 365.125 137.275 365.125 139.82C365.125 141.67 364.539 143.521 363.398 145.372C362.287 147.191 360.529 148.733 358.154 149.998C355.07 151.679 352.248 152.681 349.703 153.021C347.143 153.391 344.167 153.576 340.759 153.576C331.583 153.576 324.536 151.679 319.601 147.901C314.666 144.076 311.273 139.141 309.422 133.096C307.603 127.02 306.708 120.574 306.708 113.788V63.7609H298.627C294.68 63.7609 291.734 62.7123 289.806 60.615C287.925 58.4868 286.969 56.2198 286.969 53.8295C286.969 51.2849 287.956 48.9563 289.93 46.859C291.904 44.7308 294.803 43.6513 298.627 43.6513H306.708V25.4539C306.708 21.7527 307.896 19.0077 310.286 17.188C312.661 15.3374 315.421 14.4121 318.552 14.4121C321.513 14.4121 324.258 15.3374 326.818 17.188C329.362 19.0077 330.642 21.7527 330.642 25.4539V43.6513H347.113C350.814 43.6513 353.651 44.7308 355.625 46.859C357.599 48.9563 358.586 51.2849 358.586 53.8295C358.586 56.3895 357.599 58.6873 355.625 60.7383C353.651 62.7586 350.814 63.7609 347.113 63.7609H330.642V113.788C330.642 116.873 330.843 119.88 331.259 122.794C331.66 125.678 332.616 128.084 334.097 130.012C335.577 131.909 337.798 132.849 340.759 132.849C341.9 132.849 343.134 132.695 344.46 132.356C345.817 131.986 346.835 131.662 347.544 131.369Z" fill="#2C2C2C"/>
<path d="M375.54 126.247C374.553 122.299 375.448 119.138 378.254 116.748C381.092 114.326 384.192 113.108 387.569 113.108C390.113 113.108 392.38 113.879 394.354 115.39C396.328 116.871 397.809 119.092 398.796 122.053C399.659 124.566 401.479 126.648 404.286 128.283C407.123 129.887 410.408 131.059 414.156 131.799C417.888 132.508 421.681 132.848 425.506 132.848C433.155 132.848 439.293 131.475 443.95 128.715C448.592 125.97 450.92 122.469 450.92 118.228C450.92 115.267 449.687 113.093 447.219 111.689C444.752 110.255 441.498 109.268 437.473 108.728C433.432 108.158 429.161 107.726 424.642 107.433C418.72 106.862 412.891 106.168 407.185 105.336C401.464 104.472 396.267 103.022 391.578 100.956C386.921 98.9049 383.189 95.8668 380.352 91.8264C377.545 87.8014 376.157 82.3267 376.157 75.4179C376.157 68.6324 378.131 62.7106 382.079 57.6523C386.027 52.5632 391.594 48.6153 398.796 45.8086C406.028 42.971 414.371 41.5522 423.84 41.5522C429.346 41.5522 435.268 42.092 441.606 43.1561C447.975 44.1893 453.881 46.3329 459.31 49.5714C464.738 52.8254 468.717 57.8374 471.277 64.6228C472.264 67.4604 472.171 69.9741 471.03 72.1485C469.92 74.3384 468.254 76.0039 466.034 77.1451C463.844 78.2554 461.654 78.8106 459.433 78.8106C456.873 78.8106 454.776 78.3171 453.141 77.3302C451.537 76.3432 450.149 74.6622 449.008 72.2719C447.728 69.311 445.569 67.1365 442.531 65.7332C439.524 64.299 436.27 63.42 432.785 63.0807C429.33 62.7106 426.339 62.5255 423.84 62.5255C416.762 62.5255 411.071 63.7284 406.753 66.1033C402.435 68.4936 400.276 71.6859 400.276 75.6646C400.276 79.0419 401.402 81.3243 403.669 82.5118C405.92 83.7147 408.989 84.4241 412.86 84.6708C416.762 84.8867 421.126 85.2568 425.938 85.7811C431.859 86.5214 437.72 87.3233 443.518 88.1869C449.317 89.0197 454.591 90.4539 459.371 92.5049C464.183 94.5251 468.007 97.5478 470.845 101.573C473.683 105.613 475.101 111.165 475.101 118.228C475.101 125.137 473.004 131.29 468.809 136.672C464.646 142.023 458.847 146.172 451.414 149.133C444.012 152.094 435.376 153.574 425.506 153.574C421.142 153.574 416.376 153.235 411.195 152.587C406.044 151.97 401.032 150.721 396.143 148.824C391.285 146.943 387.014 144.198 383.313 140.62C379.642 137.011 377.051 132.215 375.54 126.247Z" fill="#2C2C2C"/>
<path d="M546.248 131.369C549.486 129.518 552.416 128.886 555.007 129.457C557.629 130.043 559.757 131.276 561.361 133.158C562.995 135.055 563.828 137.275 563.828 139.82C563.828 141.67 563.242 143.521 562.101 145.372C560.991 147.191 559.232 148.733 556.858 149.998C553.773 151.679 550.951 152.681 548.407 153.021C545.847 153.391 542.87 153.576 539.462 153.576C530.286 153.576 523.239 151.679 518.304 147.901C513.369 144.076 509.976 139.141 508.126 133.096C506.306 127.02 505.411 120.574 505.411 113.788V63.7609H497.331C493.383 63.7609 490.437 62.7123 488.509 60.615C486.628 58.4868 485.672 56.2198 485.672 53.8295C485.672 51.2849 486.659 48.9563 488.633 46.859C490.607 44.7308 493.506 43.6513 497.331 43.6513H505.411V25.4539C505.411 21.7527 506.599 19.0077 508.989 17.188C511.364 15.3374 514.125 14.4121 517.255 14.4121C520.216 14.4121 522.961 15.3374 525.521 17.188C528.066 19.0077 529.346 21.7527 529.346 25.4539V43.6513H545.816C549.517 43.6513 552.354 44.7308 554.328 46.859C556.302 48.9563 557.289 51.2849 557.289 53.8295C557.289 56.3895 556.302 58.6873 554.328 60.7383C552.354 62.7586 549.517 63.7609 545.816 63.7609H529.346V113.788C529.346 116.873 529.546 119.88 529.962 122.794C530.363 125.678 531.32 128.084 532.8 130.012C534.28 131.909 536.501 132.849 539.462 132.849C540.603 132.849 541.837 132.695 543.163 132.356C544.52 131.986 545.538 131.662 546.248 131.369Z" fill="#2C2C2C"/>
<path d="M628.682 43.6504C632.507 43.6504 635.545 44.4832 637.812 46.1178C640.063 47.7217 641.205 50.3587 641.205 54.0136C641.205 57.4372 640.063 60.1206 637.812 62.0945C635.545 64.0685 632.507 65.0555 628.682 65.0555C619.8 65.0555 613.538 68.2477 609.93 74.6168C606.352 80.955 604.563 89.5448 604.563 100.402V140.683C604.563 143.767 603.422 146.342 601.17 148.393C598.903 150.46 596.143 151.478 592.904 151.478C589.234 151.478 586.273 150.46 584.022 148.393C581.755 146.342 580.629 143.767 580.629 140.683V54.4454C580.629 51.0836 581.924 48.4465 584.515 46.5496C587.137 44.6219 589.943 43.6504 592.904 43.6504C595.865 43.6504 598.533 44.5757 600.924 46.4263C603.345 48.246 604.563 50.9139 604.563 54.4454V55.7409C607.647 51.6387 611.225 48.5853 615.296 46.6113C619.399 44.6374 623.871 43.6504 628.682 43.6504Z" fill="#2C2C2C"/>
<path d="M676.555 27.798C676.555 31.2987 675.229 33.9357 672.607 35.6938C670.016 37.4673 667.24 38.3463 664.279 38.3463C661.149 38.3463 658.311 37.4673 655.767 35.6938C653.253 33.9357 652.004 31.2987 652.004 27.798V25.0221C652.004 21.3672 653.253 18.6993 655.767 17.0029C658.311 15.2757 661.149 14.4121 664.279 14.4121C667.24 14.4121 670.016 15.2757 672.607 17.0029C675.229 18.6993 676.555 21.3672 676.555 25.0221V27.798ZM652.189 54.0146C652.189 50.6527 653.484 48.0773 656.075 46.3038C658.697 44.5457 661.442 43.6513 664.279 43.6513C667.24 43.6513 669.985 44.5457 672.545 46.3038C675.09 48.0773 676.37 50.591 676.37 53.8295V141.115C676.37 144.662 675.09 147.268 672.545 148.949C669.985 150.646 667.24 151.479 664.279 151.479C661.442 151.479 658.697 150.646 656.075 148.949C653.484 147.268 652.189 144.662 652.189 141.115V54.0146Z" fill="#2C2C2C"/>
<path d="M689.663 59.5654C688.676 56.7278 688.645 54.1216 689.54 51.7313C690.48 49.3101 692.038 47.3516 694.228 45.8711C696.402 44.3906 698.7 43.6504 701.137 43.6504C703.681 43.6504 705.902 44.3289 707.799 45.686C709.68 47.0123 711.13 48.8012 712.117 51.0527L744.564 116.748L776.949 50.8677C778.213 48.3231 779.879 46.4879 781.945 45.3776C783.996 44.2364 786.155 43.6504 788.422 43.6504C790.921 43.6504 793.203 44.3289 795.269 45.686C797.321 47.0123 798.739 48.832 799.526 51.1761C800.297 53.5202 799.911 56.2343 798.354 59.3186L755.174 147.036C754.187 148.887 752.675 150.429 750.67 151.663C748.696 152.927 746.507 153.575 744.132 153.575C739.474 153.575 735.943 151.539 733.522 147.468L689.663 59.5654Z" fill="#2C2C2C"/>
<path d="M869.54 132.601C873.642 132.601 877.683 132.046 881.631 130.935C885.579 129.794 889.234 127.882 892.611 125.199C895.849 122.238 899.042 120.865 902.172 121.066C905.287 121.281 907.863 122.407 909.883 124.458C911.934 126.525 912.967 129.069 912.967 132.107C912.967 135.161 911.487 138.075 908.526 140.867C903.591 145.678 897.731 149.056 890.945 150.983C884.16 152.865 877.22 153.728 870.157 153.574C859.177 153.574 849.461 151.338 841.041 146.85C832.652 142.332 826.082 136.04 821.363 127.974C816.629 119.924 814.27 110.61 814.27 100.031C814.27 88.4336 816.521 78.2554 821.055 69.496C825.573 60.7366 831.943 53.8895 840.178 48.9546C848.444 44.0197 858.221 41.5522 869.54 41.5522C880.844 41.5522 890.452 43.8655 898.348 48.4611C906.243 53.0259 912.258 59.4412 916.422 67.7071C920.616 75.9731 922.714 85.6269 922.714 96.6379C922.714 100.139 921.989 103.146 920.555 105.644C919.151 108.111 915.435 109.345 909.389 109.345H838.821C840.795 116.254 844.527 121.867 850.047 126.186C855.553 130.473 862.045 132.601 869.54 132.601ZM869.787 62.5255C861.552 62.5255 854.689 65.1009 849.184 70.2363C843.709 75.387 840.193 82.1262 838.636 90.4693H900.26C899.55 82.1262 896.805 75.387 891.994 70.2363C887.182 65.1009 879.78 62.5255 869.787 62.5255Z" fill="#2C2C2C"/>
<path fill-rule="evenodd" clip-rule="evenodd" d="M53.4972 14.0542C40.9596 17.2773 29.8098 23.8469 20.9424 32.7143C7.9421 45.545 1.39065e-05 63.2797 1.39065e-05 82.8496C1.39065e-05 102.42 7.9421 120.293 20.9424 133.293C33.9273 146.139 51.6621 154.236 71.3862 154.236C90.9561 154.236 108.691 146.139 121.522 133.293C132.224 122.437 139.565 108.218 141.693 92.3184C130.389 114.649 107.766 126.415 85.1422 125.49C80.7162 127.017 76.1206 127.788 71.3862 127.788C59.0027 127.788 47.853 122.745 39.587 114.495C15.2827 90.1902 25.2296 32.8685 53.4972 14.0542Z" fill="#007BFF"/>
<path fill-rule="evenodd" clip-rule="evenodd" d="M120.462 97.6684C117.1 101.03 113.429 103.791 109.451 105.934C107.616 109.142 105.318 112.041 102.727 114.647C97.8383 119.536 91.8702 123.361 85.1464 125.489C107.77 126.414 130.393 114.647 141.697 92.3171C142.16 89.2637 142.314 86.056 142.314 82.8483C142.314 63.7411 134.819 46.469 122.59 33.6228C137.58 50.8949 139.415 78.5611 120.462 97.6684Z" fill="#00C7A2"/>
<path fill-rule="evenodd" clip-rule="evenodd" d="M109.467 105.935C113.446 103.791 117.116 101.03 120.478 97.6686C139.431 78.5613 137.596 50.8951 122.606 33.623C122.313 33.3146 122.005 33.0216 121.542 32.559C118.797 29.7985 115.883 27.3619 112.675 25.0641C105.643 20.6381 97.2379 18.0319 87.7691 18.0319C66.6725 18.0319 50.7729 30.878 44.0491 47.5332C51.6828 41.7348 61.167 38.3729 71.4069 38.3729C83.6361 38.3729 94.8013 43.2615 102.898 51.3578C110.84 59.2999 115.883 70.465 115.883 82.8485C115.883 91.2532 113.6 99.1953 109.467 105.935Z" fill="#007BFF"/>
</svg>
